{
  "accessors": [
    {
      "bufferView": 2,
      "componentType": 5126,
      "count": 17346,
      "max": [
        0.9958369731903076,
        1.0786367654800415,
        0.9799520373344421
      ],
      "min": [
        -0.9947236180305481,
        -2.8157589435577393,
        -2.9988629817962646
      ],
      "type": "VEC3"
    },
    {
      "bufferView": 2,
      "byteOffset": 208152,
      "componentType": 5126,
      "count": 17346,
      "max": [
        0.999977707862854,
        0.9999394416809082,
        0.9999526739120483
      ],
      "min": [
        -0.9999885559082031,
        -0.9999563694000244,
        -0.9999864101409912
      ],
      "type": "VEC3"
    },
    {
      "bufferView": 0,
      "componentType": 5125,
      "count": 104064,
      "type": "SCALAR"
    },
    {
      "bufferView": 2,
      "byteOffset": 416304,
      "componentType": 5126,
      "count": 1118,
      "max": [
        1.1158905029296875,
        1.5814310312271118,
        4.824063301086426
      ],
      "min": [
        -1.1158897876739502,
        -1.3013283014297485,
        -1.374488353729248
      ],
      "type": "VEC3"
    },
    {
      "bufferView": 2,
      "byteOffset": 429720,
      "componentType": 5126,
      "count": 1118,
      "max": [
        1.0,
        0.9993277192115784,
        0.9992771744728088
      ],
      "min": [
        -0.9999992847442627,
        -0.9999831914901733,
        -0.9978324174880981
      ],
      "type": "VEC3"
    },
    {
      "bufferView": 1,
      "componentType": 5126,
      "count": 1118,
      "max": [
        1.0000001192092896,
        1.0
      ],
      "min": [
        0.0,
        0.0
      ],
      "type": "VEC2"
    },
    {
      "bufferView": 0,
      "byteOffset": 416256,
      "componentType": 5125,
      "count": 5760,
      "type": "SCALAR"
    },
    {
      "bufferView": 2,
      "byteOffset": 443136,
      "componentType": 5126,
      "count": 559,
      "max": [
        0.9999997019767761,
        0.9999987483024597,
        1.0
      ],
      "min": [
        -0.9999990463256836,
        -0.9999994039535522,
        -1.0
      ],
      "type": "VEC3"
    },
    {
      "bufferView": 2,
      "byteOffset": 449844,
      "componentType": 5126,
      "count": 559,
      "max": [
        1.0,
        1.0,
        1.0
      ],
      "min": [
        -1.0,
        -1.0,
        -1.0
      ],
      "type": "VEC3"
    },
    {
      "bufferView": 1,
      "byteOffset": 8944,
      "componentType": 5126,
      "count": 559,
      "max": [
        1.0000001192092896,
        1.0
      ],
      "min": [
        0.0,
        0.0
      ],
      "type": "VEC2"
    },
    {
      "bufferView": 0,
      "byteOffset": 439296,
      "componentType": 5125,
      "count": 2880,
      "type": "SCALAR"
    },
    {
      "bufferView": 2,
      "byteOffset": 456552,
      "componentType": 5126,
      "count": 559,
      "max": [
        0.9999997019767761,
        0.9999987483024597,
        1.0
      ],
      "min": [
        -0.9999990463256836,
        -0.9999994039535522,
        -1.0
      ],
      "type": "VEC3"
    },
    {
      "bufferView": 2,
      "byteOffset": 463260,
      "componentType": 5126,
      "count": 559,
      "max": [
        1.0,
        1.0,
        1.0
      ],
      "min": [
        -1.0,
        -1.0,
        -1.0
      ],
      "type": "VEC3"
    },
    {
      "bufferView": 1,
      "byteOffset": 13416,
      "componentType": 5126,
      "count": 559,
      "max": [
        1.0000001192092896,
        1.0
      ],
      "min": [
        0.0,
        0.0
      ],
      "type": "VEC2"
    },
    {
      "bufferView": 0,
      "byteOffset": 450816,
      "componentType": 5125,
      "count": 2880,
      "type": "SCALAR"
    },
    {
      "bufferView": 2,
      "byteOffset": 469968,
      "componentType": 5126,
      "count": 659,
      "max": [
        1.001914143562317,
        1.09337317943573,
        0.913203775882721
      ],
      "min": [
        -1.0083178281784058,
        -1.156449556350708,
        -1.0764037370681763
      ],
      "type": "VEC3"
    },
    {
      "bufferView": 2,
      "byteOffset": 477876,
      "componentType": 5126,
      "count": 659,
      "max": [
        0.9999812841415405,
        0.9951401352882385,
        0.9982647895812988
      ],
      "min": [
        -0.9993334412574768,
        -0.9995575547218323,
        -0.9975789785385132
      ],
      "type": "VEC3"
    },
    {
      "bufferView": 1,
      "byteOffset": 17888,
      "componentType": 5126,
      "count": 659,
      "max": [
        1.0000001192092896,
        1.0
      ],
      "min": [
        0.0,
        0.0
      ],
      "type": "VEC2"
    },
    {
      "bufferView": 0,
      "byteOffset": 462336,
      "componentType": 5125,
      "count": 3330,
      "type": "SCALAR"
    },
    {
      "bufferView": 2,
      "byteOffset": 485784,
      "componentType": 5126,
      "count": 659,
      "max": [
        1.001914143562317,
        1.09337317943573,
        0.913203775882721
      ],
      "min": [
        -1.0083178281784058,
        -1.156449556350708,
        -1.0764037370681763
      ],
      "type": "VEC3"
    },
    {
      "bufferView": 2,
      "byteOffset": 493692,
      "componentType": 5126,
      "count": 659,
      "max": [
        0.9999812841415405,
        0.9951401352882385,
        0.9982647895812988
      ],
      "min": [
        -0.9993334412574768,
        -0.9995575547218323,
        -0.9975789785385132
      ],
      "type": "VEC3"
    },
    {
      "bufferView": 1,
      "byteOffset": 23160,
      "componentType": 5126,
      "count": 659,
      "max": [
        1.0000001192092896,
        1.0
      ],
      "min": [
        0.0,
        0.0
      ],
      "type": "VEC2"
    },
    {
      "bufferView": 0,
      "byteOffset": 475656,
      "componentType": 5125,
      "count": 3330,
      "type": "SCALAR"
    }
  ],
  "asset": {
    "extras": {
      "author": "Jhovi Arts (https://sketchfab.com/jhovanact4)",
      "license": "CC-BY-4.0 (http://creativecommons.org/licenses/by/4.0/)",
      "source": "https://sketchfab.com/3d-models/glass-duck-10292e9925c94da2ab93c3eb21c0a2dd",
      "title": "Glass Duck"
    },
    "generator": "Sketchfab-14.17.0",
    "version": "2.0"
  },
  "bufferViews": [
    {
      "buffer": 0,
      "byteLength": 488976,
      "name": "floatBufferViews",
      "target": 34963
    },
    {
      "buffer": 0,
      "byteLength": 28432,
      "byteOffset": 488976,
      "byteStride": 8,
      "name": "floatBufferViews",
      "target": 34962
    },
    {
      "buffer": 0,
      "byteLength": 501600,
      "byteOffset": 517408,
      "byteStride": 12,
      "name": "floatBufferViews",
      "target": 34962
    }
  ],
  "buffers": [
    {
      "byteLength": 1019008,
      "uri": "scene.bin"
    }
  ],
  "materials": [
    {
      "alphaMode": "BLEND",
      "doubleSided": true,
      "name": "vidrio",
      "pbrMetallicRoughness": {
        "baseColorFactor": [
          0.8,
          0.8,
          0.8,
          0.7481927563969718
        ],
        "metallicFactor": 0.9310504565347246,
        "roughnessFactor": 0.0
      }
    }
  ],
  "meshes": [
    {
      "name": "Esfera_vidrio_0",
      "primitives": [
        {
          "attributes": {
            "NORMAL": 1,
            "POSITION": 0
          },
          "indices": 2,
          "material": 0,
          "mode": 4
        }
      ]
    },
    {
      "name": "Esfera.002_vidrio_0",
      "primitives": [
        {
          "attributes": {
            "NORMAL": 4,
            "POSITION": 3,
            "TEXCOORD_0": 5
          },
          "indices": 6,
          "material": 0,
          "mode": 4
        }
      ]
    },
    {
      "name": "Esfera.001_vidrio_0",
      "primitives": [
        {
          "attributes": {
            "NORMAL": 8,
            "POSITION": 7,
            "TEXCOORD_0": 9
          },
          "indices": 10,
          "material": 0,
          "mode": 4
        }
      ]
    },
    {
      "name": "Esfera.003_vidrio_0",
      "primitives": [
        {
          "attributes": {
            "NORMAL": 12,
            "POSITION": 11,
            "TEXCOORD_0": 13
          },
          "indices": 14,
          "material": 0,
          "mode": 4
        }
      ]
    },
    {
      "name": "Esfera.004_vidrio_0",
      "primitives": [
        {
          "attributes": {
            "NORMAL": 16,
            "POSITION": 15,
            "TEXCOORD_0": 17
          },
          "indices": 18,
          "material": 0,
          "mode": 4
        }
      ]
    },
    {
      "name": "Esfera.005_vidrio_0",
      "primitives": [
        {
          "attributes": {
            "NORMAL": 20,
            "POSITION": 19,
            "TEXCOORD_0": 21
          },
          "indices": 22,
          "material": 0,
          "mode": 4
        }
      ]
    }
  ],
  "nodes": [
    {
      "children": [
        1
      ],
      "matrix": [
        1.0,
        0.0,
        0.0,
        0.0,
        0.0,
        2.220446049250313e-16,
        -1.0,
        0.0,
        0.0,
        1.0,
        2.220446049250313e-16,
        0.0,
        0.0,
        0.0,
        0.0,
        1.0
      ],
      "name": "Sketchfab_model"
    },
    {
      "children": [
        2
      ],
      "matrix": [
        0.009999999776482582,
        0.0,
        0.0,
        0.0,
        0.0,
        0.0,
        0.009999999776482582,
        0.0,
        0.0,
        -0.009999999776482582,
        0.0,
        0.0,
        0.0,
        0.0,
        0.0,
        1.0
      ],
      "name": "6bb56c930de24bc094d1c264486b39aa.fbx"
    },
    {
      "children": [
        3,
        5,
        7,
        9,
        11,
        13
      ],
      "name": "RootNode"
    },
    {
      "children": [
        4
      ],
      "matrix": [
        89.35663604736328,
        0.0,
        0.0,
        0.0,
        0.0,
        -1.4558043853005039e-05,
        -89.3566360473621,
        0.0,
        0.0,
        89.3566360473621,
        -1.4558043853005039e-05,
        0.0,
        0.0,
        117.1886215209961,
        -73.71541595458984,
        1.0
      ],
      "name": "Esfera"
    },
    {
      "mesh": 0,
      "name": "Esfera_vidrio_0"
    },
    {
      "children": [
        6
      ],
      "matrix": [
        22.87941551208496,
        0.0,
        0.0,
        0.0,
        0.0,
        -6.3455082604239505e-06,
        -38.9484519958491,
        0.0,
        0.0,
        11.148528099059911,
        -1.8163257721177875e-06,
        0.0,
        0.0,
        77.29537200927734,
        -165.77093505859375,
        1.0
      ],
      "name": "Esfera.002"
    },
    {
      "mesh": 1,
      "name": "Esfera.002_vidrio_0"
    },
    {
      "children": [
        8
      ],
      "matrix": [
        9.247506141662598,
        0.0,
        0.0,
        0.0,
        -0.0,
        -2.4408290439930386e-06,
        -14.981701850890916,
        0.0,
        0.0,
        14.981701850890916,
        -2.4408290439930386e-06,
        0.0,
        -79.99791717529297,
        133.40809631347656,
        -89.94983673095703,
        1.0
      ],
      "name": "Esfera.001"
    },
    {
      "mesh": 2,
      "name": "Esfera.001_vidrio_0"
    },
    {
      "children": [
        10
      ],
      "matrix": [
        9.247506141662598,
        0.0,
        0.0,
        0.0,
        0.0,
        -2.4408290439930386e-06,
        -14.981701850890916,
        0.0,
        0.0,
        14.981701850890916,
        -2.4408290439930386e-06,
        0.0,
        80.67176055908203,
        133.40809631347656,
        -89.94983673095703,
        1.0
      ],
      "name": "Esfera.003"
    },
    {
      "mesh": 3,
      "name": "Esfera.003_vidrio_0"
    },
    {
      "children": [
        12
      ],
      "matrix": [
        31.58320327829031,
        -3.11695982138037,
        7.372682427863752,
        0.0,
        16.52437325652934,
        -6.704613704899959,
        -73.62186781462037,
        0.0,
        8.51781111963837,
        74.73252370732617,
        -4.8939428335018125,
        0.0,
        -79.23247528076172,
        -18.720998764038086,
        0.0,
        1.0
      ],
      "name": "Esfera.004"
    },
    {
      "mesh": 4,
      "name": "Esfera.004_vidrio_0"
    },
    {
      "children": [
        14
      ],
      "matrix": [
        32.23021577331194,
        -4.530230487119454,
        1.5036013325898332,
        0.0,
        3.401280745391454,
        -0.9164651070041197,
        -75.66886782531598,
        0.0,
        10.511090515494299,
        74.63768156883016,
        -0.4315071968233664,
        0.0,
        87.01153564453125,
        -18.720998764038086,
        0.0,
        1.0
      ],
      "name": "Esfera.005"
    },
    {
      "mesh": 5,
      "name": "Esfera.005_vidrio_0"
    }
  ],
  "scene": 0,
  "scenes": [
    {
      "name": "Sketchfab_Scene",
      "nodes": [
        0
      ]
    }
  ]
}
